<?xml version="1.0" encoding="iso-8859-1"?>
<svg
	fill="#ffffff" height="800px" width="800px" version="1.1" id="Layer_1" xmlns="http://www.w3.org/2000/svg"
	viewBox="0 0 376.178 376.178" xml:space="preserve"
>
<g>
	<g>
		<path
			d="M270.158,164.105c-58.44,0-106.02,47.515-106.02,106.02s47.58,106.02,106.02,106.02c58.505,0,106.02-47.58,106.02-106.02
			C376.307,211.685,328.663,164.105,270.158,164.105z M270.158,355.329c-46.933,0-85.139-38.141-85.139-85.139
			s38.141-85.139,85.139-85.139s85.139,38.141,85.139,85.139C355.362,317.123,317.156,355.329,270.158,355.329z"
		/>
	</g>
</g>
	<g>
	<g>
		<path
			d="M106.085,0.032C47.58,0.032,0,47.612,0,106.053s47.58,106.02,106.085,106.02s106.02-47.58,106.02-106.02
			C212.105,47.548,164.525,0.032,106.085,0.032z M106.085,191.127c-46.998,0-85.204-38.206-85.204-85.075
			c0-46.998,38.206-85.204,85.204-85.204c46.933,0,85.139,38.141,85.139,85.139S153.083,191.127,106.085,191.127z"
		/>
	</g>
</g>
	<g>
	<g>
		<path
			d="M106.02,95.58c-6.788,0-12.283-5.495-12.283-12.283c0-6.788,5.495-12.283,12.283-12.283
			c6.788,0,12.283,5.495,12.283,12.283c0,5.818,4.719,10.408,10.408,10.408c5.689,0,10.408-4.719,10.408-10.408
			c0-14.61-9.503-27.022-22.691-31.418v-4.461c0-5.818-4.719-10.408-10.408-10.408c-5.689,0-10.408,4.719-10.408,10.408v4.461
			c-13.188,4.396-22.691,16.873-22.691,31.418c0,18.295,14.933,33.164,33.164,33.164c6.788,0,12.283,5.495,12.283,12.283
			c0,6.723-5.56,12.283-12.283,12.283c-6.788,0-12.283-5.495-12.283-12.283c0-5.818-4.719-10.408-10.408-10.408
			c-5.818,0-10.408,4.719-10.408,10.408c0,14.61,9.568,27.022,22.691,31.418v4.461c0,5.818,4.719,10.408,10.408,10.408
			c5.689,0,10.408-4.719,10.408-10.408v-4.461c13.188-4.396,22.691-16.873,22.691-31.418
			C139.184,110.449,124.251,95.58,106.02,95.58z"
		/>
	</g>
</g>
	<g>
	<g>
		<path
			d="M321.034,292.428c-4.913-2.909-11.378-1.228-14.287,3.814c-6.659,11.442-17.325,18.23-28.509,18.23
			c-10.214,0-19.394-5.495-25.794-14.222h17.713c5.818,0,10.408-4.719,10.408-10.408c0-5.689-4.719-10.408-10.408-10.408h-26.44
			c-0.517-3.038-2.004-11.313,0-18.554h26.44c5.818,0,10.408-4.719,10.408-10.408c0-5.689-4.719-10.408-10.408-10.408h-17.713
			c6.529-8.792,15.709-14.352,25.923-14.352c11.119,0,21.786,6.788,28.509,18.23c2.909,4.913,9.374,6.659,14.287,3.685
			c4.913-2.909,6.659-9.374,3.685-14.287c-10.537-17.842-27.927-28.509-46.545-28.509c-21.657,0-40.404,14.287-49.842,35.168
			h-16.097c-5.818,0-10.408,4.719-10.408,10.408c0,5.689,4.719,10.408,10.408,10.408h10.279c-1.681,9.244-0.388,15.515,0,18.554
			h-10.279c-5.818,0-10.408,4.719-10.408,10.408c0,5.689,4.719,10.408,10.408,10.408h16.097
			c9.438,20.881,28.186,35.168,49.842,35.168c18.683,0,36.073-10.731,46.545-28.638
			C327.758,301.673,326.077,295.337,321.034,292.428z"
		/>
	</g>
</g>
	<g>
	<g>
		<path
			d="M153.018,311.693l-28.638-28.638c-4.073-4.073-10.667-4.073-14.739,0c-4.073,4.073-4.073,10.667,0,14.739l9.826,9.826
			c-41.309-5.818-73.244-41.244-73.244-84.17c0-5.818-4.719-10.408-10.408-10.408s-10.408,4.719-10.408,10.408
			c0,54.949,42.02,100.202,95.612,105.503l-11.313,11.313c-4.073,4.073-4.073,10.667,0,14.739c4.396,4.396,11.895,3.297,14.739,0
			l28.574-28.574C157.091,322.36,157.091,315.766,153.018,311.693z"
		/>
	</g>
</g>
	<g>
	<g>
		<path
			d="M255.224,47.224l11.313-11.313c4.073-4.073,4.073-10.667,0-14.739s-10.731-4.073-14.739,0l-28.509,28.574
			c-4.073,4.073-4.073,10.667,0,14.739l28.574,28.638c3.814,3.814,11.313,3.556,14.739,0c4.073-4.073,4.073-10.667,0-14.739
			l-9.826-9.826c41.309,5.818,73.244,41.244,73.244,84.17c0,5.818,4.719,10.408,10.408,10.408c5.689,0,10.408-4.719,10.408-10.408
			C350.836,97.778,308.816,52.525,255.224,47.224z"
		/>
	</g>
</g>
</svg>
